<?xml version="1.0" encoding="UTF-8"?>
<svg width="200" height="200" version="1.1" xmlns="http://www.w3.org/2000/svg">
 <path d="m194.99 99.995c0 52.251-42.529 94.604-95 94.604-52.46 0-94.995-42.353-94.995-94.604 0-52.238 42.532-94.593 95-94.593 52.466 0 95 42.353 95 94.593m-76.361 14.704c11.255-6.148 19.136-17.641 20.139-31.068a0.96817 0.96817 0 0 0-0.97631-0.96275h-17.338c-0.53696 0-0.91121 0.42579-0.9763 0.96547-1.4021 9.4837-9.6085 16.76-19.526 16.76-9.9095 0-18.116-7.2762-19.526-16.76-0.04883-0.56138-0.43391-0.96275-0.97631-0.96275h-17.329a0.97088 0.97088 0 0 0-0.97088 0.96546c0.99528 13.424 8.8844 24.923 20.131 31.068-11.792 6.4382-19.879 18.767-20.231 33.015 0 0.53697 0.43391 0.97088 0.97631 0.97088h17.232a0.97631 0.97631 0 0 0 0.97631-0.97088c0.50714-10.406 9.1447-18.691 19.716-18.691 10.588 0 19.222 8.285 19.727 18.691a0.97631 0.97631 0 0 0 0.97631 0.97088h17.237c0.53696 0 0.97088-0.43391 0.97088-0.97088-0.35256-14.251-8.4342-26.577-20.231-33.015m-56.479-35.917h17.335c0.53697 0 0.91664-0.42306 0.97088-0.96817 1.4102-9.4783 9.6166-16.754 19.526-16.754 9.9149 0 18.124 7.2762 19.534 16.754 0.0651 0.53425 0.49629 0.96817 1.0305 0.96817h17.275c0.53697 0 0.97088-0.43391 0.97088-0.96545-1.4916-20.047-18.292-35.844-38.808-35.844-20.511 0-37.311 15.797-38.803 35.844 0 0.53425 0.43391 0.96545 0.97089 0.96545" fill="#44841a"/>
</svg>
