<?xml version="1.0" encoding="UTF-8" ?>
<!DOCTYPE svg PUBLIC "-//W3C//DTD SVG 1.1//EN" "http://www.w3.org/Graphics/SVG/1.1/DTD/svg11.dtd">
<svg width="1117pt" height="258pt" viewBox="0 0 1117 258" version="1.1" xmlns="http://www.w3.org/2000/svg">
<g id="#ffffffff">
</g>
<g id="#01478cff">
<path fill="#01478c" opacity="1.00" d=" M 218.45 10.54 C 232.22 8.31 247.16 9.40 259.42 16.56 C 270.35 22.90 277.29 34.64 279.64 46.85 C 283.55 65.53 279.09 85.31 269.47 101.59 C 259.59 118.63 242.59 131.87 223.04 135.48 C 209.06 137.89 193.79 136.94 181.38 129.51 C 172.05 124.04 165.55 114.62 162.49 104.37 C 157.68 88.20 159.63 70.54 166.15 55.14 C 175.08 33.15 194.51 14.47 218.45 10.54 M 224.22 38.22 C 219.33 39.20 215.22 42.44 212.24 46.33 C 205.70 55.14 202.88 66.08 201.31 76.78 C 200.50 83.70 199.79 90.84 201.35 97.72 C 202.56 103.16 207.14 108.32 213.07 108.17 C 220.71 108.56 227.00 102.91 230.73 96.76 C 237.75 84.79 240.12 70.70 240.51 57.00 C 240.41 51.52 239.62 45.51 235.74 41.31 C 232.82 38.21 228.26 37.49 224.22 38.22 Z" />
<path fill="#01478c" opacity="1.00" d=" M 522.53 21.66 C 533.88 13.41 547.97 9.09 562.00 9.50 C 575.03 9.47 588.79 13.34 597.97 23.04 C 607.44 32.42 611.07 46.11 611.45 59.09 C 611.89 86.48 597.32 113.83 573.76 128.04 C 585.28 126.46 596.84 125.35 608.41 124.21 C 615.79 86.56 623.19 48.91 630.37 11.22 C 642.12 11.14 653.87 11.27 665.63 11.15 C 674.36 32.06 683.10 52.98 691.74 73.93 C 694.95 61.25 696.86 48.24 699.58 35.44 C 701.04 27.35 702.88 19.34 704.18 11.22 C 714.80 11.16 725.42 11.22 736.05 11.18 C 729.12 46.42 722.56 81.73 715.65 116.97 C 720.67 117.07 725.68 116.75 730.71 116.77 C 737.39 81.56 744.18 46.37 751.05 11.20 C 777.90 11.21 804.75 11.15 831.60 11.23 C 830.00 19.49 828.16 27.71 826.73 36.00 C 811.92 36.06 797.12 35.93 782.32 36.06 C 781.39 43.10 779.65 50.00 778.47 57.00 C 792.75 56.98 807.04 57.01 821.33 56.97 C 819.67 65.34 818.20 73.75 816.33 82.07 C 801.97 81.97 787.60 81.96 773.25 82.08 C 772.23 89.61 770.52 97.03 769.28 104.53 C 783.88 104.38 798.48 104.63 813.09 104.41 C 812.35 108.60 811.54 112.77 810.78 116.95 C 815.37 117.00 819.98 116.88 824.57 117.30 C 820.32 109.81 819.04 100.81 821.01 92.42 C 832.58 92.54 844.15 92.53 855.72 92.42 C 854.95 96.94 856.48 102.04 860.49 104.58 C 866.52 108.64 874.12 108.57 881.07 107.90 C 884.26 107.37 887.66 106.20 889.72 103.57 C 891.46 100.83 891.87 96.89 889.76 94.24 C 886.96 90.65 882.47 89.10 878.31 87.72 C 867.55 84.68 856.48 81.39 847.54 74.42 C 840.42 69.33 835.84 60.77 835.89 51.99 C 835.37 41.36 839.35 30.48 847.17 23.16 C 858.05 12.99 873.51 9.61 888.00 9.47 C 901.73 9.38 916.51 11.60 927.39 20.66 C 935.80 27.47 939.71 38.88 937.86 49.49 C 926.38 49.56 914.90 49.47 903.43 49.54 C 903.26 46.81 903.30 43.81 901.36 41.65 C 897.97 37.48 892.12 36.58 887.05 36.76 C 883.23 36.69 879.28 37.79 876.44 40.43 C 873.59 43.45 874.05 49.01 877.63 51.27 C 882.89 55.15 889.65 55.46 895.75 57.18 C 906.42 60.18 917.51 64.55 924.62 73.47 C 935.70 88.08 931.41 110.50 917.98 122.19 C 975.59 127.38 1033.11 134.92 1089.51 147.99 C 1088.28 149.05 1088.01 152.01 1086.09 151.51 C 1020.09 138.60 953.07 131.15 885.92 127.99 C 829.64 125.25 773.24 125.69 717.00 129.02 C 634.27 133.97 551.81 145.20 471.09 164.14 C 392.03 182.87 314.39 208.96 241.97 246.03 C 239.09 247.36 236.41 249.67 233.07 249.53 C 213.38 249.52 193.68 249.50 173.98 249.54 C 201.26 234.41 229.57 221.21 258.29 209.06 C 304.21 189.99 351.20 173.05 399.66 161.71 C 402.31 152.79 405.42 144.03 408.28 135.18 C 416.24 135.01 425.38 136.57 431.94 130.89 C 437.96 125.48 438.66 116.84 440.28 109.40 C 446.58 76.69 453.10 44.02 459.22 11.28 C 471.26 11.06 483.31 11.30 495.35 11.15 C 488.24 47.05 481.40 83.00 474.36 118.90 C 472.85 127.97 470.20 137.23 464.30 144.47 C 463.94 145.09 462.78 145.96 463.56 146.66 C 464.13 146.40 465.28 145.88 465.85 145.62 C 485.19 140.86 504.88 137.71 524.52 134.53 C 512.41 132.10 501.75 123.74 496.27 112.70 C 489.10 98.36 488.74 81.37 492.78 66.07 C 497.54 48.61 507.70 32.28 522.53 21.66 M 554.22 38.29 C 549.40 39.34 545.39 42.64 542.51 46.52 C 535.36 56.14 532.75 68.28 531.32 79.96 C 530.69 87.82 529.75 96.62 534.44 103.51 C 537.62 108.19 544.14 109.07 549.17 107.24 C 554.01 105.61 557.86 101.90 560.52 97.63 C 567.11 87.35 569.56 75.05 570.67 63.06 C 571.12 56.19 571.31 48.64 567.33 42.67 C 564.50 38.50 558.93 37.21 554.22 38.29 M 653.10 63.60 C 649.21 82.80 645.57 102.06 641.91 121.31 C 653.43 120.40 664.96 119.73 676.48 118.88 C 668.51 100.53 661.21 81.88 653.10 63.60 Z" />
<path fill="#01478c" opacity="1.00" d=" M 55.84 11.14 C 71.56 11.29 87.28 11.13 103.00 11.22 C 116.16 11.59 130.00 14.90 139.82 24.17 C 148.55 32.02 153.36 43.53 154.32 55.11 C 155.76 75.28 151.13 96.95 137.16 112.21 C 123.64 127.43 102.92 134.12 83.04 134.78 C 65.95 134.92 48.86 134.73 31.77 134.87 C 39.72 93.61 47.67 52.35 55.84 11.14 M 88.25 39.63 C 84.40 61.89 79.64 83.99 75.61 106.22 C 82.67 106.45 90.12 106.03 96.31 102.24 C 106.80 96.36 112.59 84.58 114.19 73.02 C 115.64 64.07 115.70 53.73 109.69 46.34 C 104.54 40.12 95.83 38.98 88.25 39.63 Z" />
<path fill="#01478c" opacity="1.00" d=" M 285.09 11.22 C 296.77 11.15 308.45 11.24 320.13 11.17 C 321.35 35.14 322.17 59.13 323.28 83.11 C 332.94 59.15 342.95 35.32 352.38 11.26 C 363.91 11.09 375.44 11.29 386.97 11.15 C 388.57 35.07 389.36 59.05 391.13 82.96 C 400.43 59.01 410.05 35.19 419.38 11.25 C 430.62 11.13 441.86 11.25 453.10 11.16 C 440.80 38.86 428.63 66.61 416.28 94.27 C 410.39 107.77 404.19 121.15 398.56 134.76 C 386.39 134.87 374.22 134.82 362.05 134.82 C 360.89 112.14 359.54 89.47 358.48 66.78 C 357.83 67.75 357.25 68.76 356.76 69.82 C 347.16 91.51 337.63 113.24 327.90 134.87 C 316.28 134.75 304.67 134.88 293.05 134.81 C 290.39 93.61 288.02 52.40 285.09 11.22 Z" />
</g>
</svg>
