<svg xmlns="http://www.w3.org/2000/svg" viewBox="22 146 332 82" fill="#ffffff">
  <defs>
    <clipPath id="logo-mark">
      <path d="M 25.492188 151.835938 L 95.242188 151.835938 L 95.242188 215.585938 L 25.492188 215.585938 Z"/>
    </clipPath>
    <clipPath id="logo-text">
      <rect x="0" y="0" width="247" height="82"/>
    </clipPath>
  </defs>

  <g clip-path="url(#logo-mark)">
    <path fill-rule="evenodd" clip-rule="evenodd"
      d="M 37.277344 186.441406 C 30.433594 183.917969 25.554688 177.371094 25.554688 169.695312 C 25.554688 159.832031 33.605469 151.835938 43.53125 151.835938 C 49.507812 151.835938 54.804688 154.734375 58.074219 159.195312 C 46.152344 162.644531 37.417969 173.519531 37.277344 186.441406 Z M 37.277344 186.441406 C 37.273438 186.550781 37.273438 186.65625 37.273438 186.761719 C 37.273438 202.621094 50.210938 215.472656 66.171875 215.472656 C 82.128906 215.472656 95.066406 202.621094 95.066406 186.761719 C 95.066406 170.90625 82.128906 158.054688 66.171875 158.054688 C 63.359375 158.054688 60.640625 158.453125 58.074219 159.195312 C 60.234375 162.140625 61.507812 165.769531 61.507812 169.695312 C 61.507812 179.558594 53.457031 187.554688 43.53125 187.554688 C 41.332031 187.554688 39.222656 187.160156 37.277344 186.441406 Z"/>
  </g>

  <g transform="translate(103, 146)">
    <g clip-path="url(#logo-text)">
      <g transform="translate(0.690149, 63.30128)">
        <path d="M 3.75 -14.140625 L 10.796875 -14.140625 C 10.878906 -10.742188 11.847656 -8.332031 13.703125 -6.90625 C 15.554688 -5.476562 18.117188 -4.765625 21.390625 -4.765625 C 22.765625 -4.765625 24.164062 -4.882812 25.59375 -5.125 C 27.03125 -5.375 28.351562 -5.800781 29.5625 -6.40625 C 30.769531 -7.007812 31.738281 -7.859375 32.46875 -8.953125 C 33.207031 -10.046875 33.578125 -11.441406 33.578125 -13.140625 C 33.578125 -14.703125 33.195312 -15.984375 32.4375 -16.984375 C 31.675781 -17.992188 30.691406 -18.773438 29.484375 -19.328125 C 28.285156 -19.890625 27.015625 -20.304688 25.671875 -20.578125 C 24.066406 -20.929688 22.3125 -21.3125 20.40625 -21.71875 C 18.507812 -22.125 16.625 -22.640625 14.75 -23.265625 C 12.875 -23.890625 11.148438 -24.703125 9.578125 -25.703125 C 8.015625 -26.710938 6.765625 -27.960938 5.828125 -29.453125 C 4.890625 -30.953125 4.421875 -32.796875 4.421875 -34.984375 C 4.421875 -37.617188 4.957031 -39.851562 6.03125 -41.6875 C 7.101562 -43.519531 8.546875 -45.003906 10.359375 -46.140625 C 12.171875 -47.285156 14.171875 -48.113281 16.359375 -48.625 C 18.546875 -49.144531 20.78125 -49.40625 23.0625 -49.40625 C 25.832031 -49.40625 28.457031 -48.96875 30.9375 -48.09375 C 33.414062 -47.21875 35.445312 -45.816406 37.03125 -43.890625 C 38.625 -41.972656 39.421875 -39.453125 39.421875 -36.328125 L 32.375 -36.328125 C 32.28125 -38.160156 31.765625 -39.601562 30.828125 -40.65625 C 29.890625 -41.707031 28.707031 -42.46875 27.28125 -42.9375 C 25.851562 -43.40625 24.332031 -43.640625 22.71875 -43.640625 C 21.15625 -43.640625 19.488281 -43.414062 17.71875 -42.96875 C 15.957031 -42.519531 14.472656 -41.75 13.265625 -40.65625 C 12.066406 -39.5625 11.46875 -38.050781 11.46875 -36.125 C 11.46875 -34.289062 11.84375 -32.945312 12.59375 -32.09375 C 13.351562 -31.25 14.359375 -30.625 15.609375 -30.21875 C 16.867188 -29.820312 18.191406 -29.398438 19.578125 -28.953125 C 21.359375 -28.378906 23.222656 -27.867188 25.171875 -27.421875 C 27.117188 -26.972656 29.003906 -26.46875 30.828125 -25.90625 C 32.660156 -25.34375 34.3125 -24.582031 35.78125 -23.625 C 37.257812 -22.664062 38.4375 -21.414062 39.3125 -19.875 C 40.1875 -18.332031 40.625 -16.332031 40.625 -13.875 C 40.625 -11.144531 40.0625 -8.832031 38.9375 -6.9375 C 37.820312 -5.039062 36.328125 -3.507812 34.453125 -2.34375 C 32.578125 -1.1875 30.476562 -0.34375 28.15625 0.1875 C 25.832031 0.726562 23.441406 1 20.984375 1 C 17.628906 1 14.632812 0.488281 12 -0.53125 C 9.363281 -1.5625 7.304688 -3.179688 5.828125 -5.390625 C 4.359375 -7.609375 3.664062 -10.523438 3.75 -14.140625 Z M 3.75 -14.140625"/>
      </g>
      <g transform="translate(45.396556, 63.30128)">
        <path d="M 25.671875 -16.359375 L 19.3125 -16.359375 C 18.007812 -16.304688 16.65625 -16.078125 15.25 -15.671875 C 13.84375 -15.273438 12.65625 -14.617188 11.6875 -13.703125 C 10.726562 -12.785156 10.25 -11.503906 10.25 -9.859375 C 10.25 -7.796875 10.882812 -6.238281 12.15625 -5.1875 C 13.4375 -4.144531 15.015625 -3.625 16.890625 -3.625 C 19.390625 -3.625 21.273438 -4.25 22.546875 -5.5 C 23.828125 -6.75 24.675781 -8.351562 25.09375 -10.3125 C 25.519531 -12.28125 25.710938 -14.296875 25.671875 -16.359375 Z M 19.90625 -20.78125 L 25.671875 -20.78125 C 25.671875 -22.75 25.546875 -24.410156 25.296875 -25.765625 C 25.054688 -27.128906 24.441406 -28.179688 23.453125 -28.921875 C 22.472656 -29.660156 20.84375 -30.03125 18.5625 -30.03125 C 16.957031 -30.03125 15.515625 -29.570312 14.234375 -28.65625 C 12.960938 -27.738281 12.304688 -26.410156 12.265625 -24.671875 L 5.5625 -24.671875 C 5.695312 -27.128906 6.351562 -29.082031 7.53125 -30.53125 C 8.71875 -31.988281 10.257812 -33.039062 12.15625 -33.6875 C 14.0625 -34.332031 16.109375 -34.65625 18.296875 -34.65625 C 20.617188 -34.65625 22.816406 -34.351562 24.890625 -33.75 C 26.972656 -33.144531 28.6875 -32.015625 30.03125 -30.359375 C 31.375 -28.710938 32.046875 -26.320312 32.046875 -23.1875 L 32.046875 -7.109375 C 32.046875 -6.390625 32.066406 -5.378906 32.109375 -4.078125 C 32.148438 -2.785156 32.21875 -1.425781 32.3125 0 L 28.015625 0 C 27.703125 0 27.332031 0.0195312 26.90625 0.0625 C 26.488281 0.113281 26.253906 -0.0625 26.203125 -0.46875 C 26.160156 -1.226562 26.101562 -1.988281 26.03125 -2.75 C 25.96875 -3.507812 25.914062 -4.269531 25.875 -5.03125 L 25.734375 -5.03125 C 24.710938 -2.925781 23.296875 -1.394531 21.484375 -0.4375 C 19.671875 0.519531 17.601562 1 15.28125 1 C 13.363281 1 11.5 0.65625 9.6875 -0.03125 C 7.875 -0.726562 6.394531 -1.78125 5.25 -3.1875 C 4.113281 -4.59375 3.546875 -6.390625 3.546875 -8.578125 C 3.546875 -10.941406 4.015625 -12.90625 4.953125 -14.46875 C 5.898438 -16.039062 7.164062 -17.285156 8.75 -18.203125 C 10.332031 -19.117188 12.082031 -19.773438 14 -20.171875 C 15.925781 -20.578125 17.894531 -20.78125 19.90625 -20.78125 Z M 19.90625 -20.78125"/>
      </g>
      <g transform="translate(82.663069, 63.30128)">
        <path d="M 0.609375 -33.84375 L 6.375 -33.65625 L 6.375 -40.828125 L 12.734375 -42.828125 L 12.734375 -33.65625 L 20.515625 -33.84375 L 20.515625 -29.09375 L 12.734375 -29.15625 L 12.734375 -7.4375 C 12.734375 -6.226562 13.144531 -5.332031 13.96875 -4.75 C 14.800781 -4.175781 15.773438 -3.890625 16.890625 -3.890625 C 17.378906 -3.890625 17.9375 -3.921875 18.5625 -3.984375 C 19.1875 -4.054688 19.75 -4.160156 20.25 -4.296875 L 20.25 0.609375 C 19.53125 0.648438 18.8125 0.722656 18.09375 0.828125 C 17.382812 0.941406 16.648438 1 15.890625 1 C 15.128906 1 14.410156 0.976562 13.734375 0.9375 C 13.066406 0.894531 12.351562 0.804688 11.59375 0.671875 C 11.101562 0.578125 10.488281 0.363281 9.75 0.03125 C 9.007812 -0.300781 8.375 -0.828125 7.84375 -1.546875 C 7.488281 -2.078125 7.195312 -2.53125 6.96875 -2.90625 C 6.75 -3.289062 6.59375 -3.828125 6.5 -4.515625 C 6.414062 -5.210938 6.375 -6.300781 6.375 -7.78125 L 6.375 -29.15625 L 0.609375 -29.09375 Z M 0.609375 -33.84375"/>
      </g>
      <g transform="translate(104.982753, 63.30128)">
        <path d="M 20.515625 -34.65625 C 24.222656 -34.65625 27.316406 -33.894531 29.796875 -32.375 C 32.273438 -30.851562 34.140625 -28.75 35.390625 -26.0625 C 36.640625 -23.382812 37.265625 -20.304688 37.265625 -16.828125 C 37.265625 -13.335938 36.640625 -10.25 35.390625 -7.5625 C 34.140625 -4.882812 32.273438 -2.785156 29.796875 -1.265625 C 27.316406 0.242188 24.222656 1 20.515625 1 C 16.847656 1 13.757812 0.242188 11.25 -1.265625 C 8.75 -2.785156 6.875 -4.882812 5.625 -7.5625 C 4.375 -10.25 3.75 -13.335938 3.75 -16.828125 C 3.75 -20.304688 4.375 -23.382812 5.625 -26.0625 C 6.875 -28.75 8.75 -30.851562 11.25 -32.375 C 13.757812 -33.894531 16.847656 -34.65625 20.515625 -34.65625 Z M 10.453125 -16.828125 C 10.453125 -14.453125 10.765625 -12.257812 11.390625 -10.25 C 12.015625 -8.238281 13.050781 -6.628906 14.5 -5.421875 C 15.957031 -4.222656 17.960938 -3.625 20.515625 -3.625 C 23.054688 -3.625 25.050781 -4.222656 26.5 -5.421875 C 27.957031 -6.628906 29 -8.238281 29.625 -10.25 C 30.25 -12.257812 30.5625 -14.453125 30.5625 -16.828125 C 30.5625 -19.234375 30.25 -21.429688 29.625 -23.421875 C 29 -25.410156 27.957031 -27.007812 26.5 -28.21875 C 25.050781 -29.425781 23.054688 -30.03125 20.515625 -30.03125 C 17.960938 -30.03125 15.957031 -29.425781 14.5 -28.21875 C 13.050781 -27.007812 12.015625 -25.410156 11.390625 -23.421875 C 10.765625 -21.429688 10.453125 -19.234375 10.453125 -16.828125 Z M 10.453125 -16.828125"/>
      </g>
      <g transform="translate(145.935693, 63.30128)">
        <path d="M 12.609375 -16.6875 L 12.609375 0 L 6.234375 0 L 6.234375 -33.65625 L 12.609375 -33.65625 L 12.609375 -27.140625 L 12.734375 -27.140625 C 13.222656 -29.472656 14.40625 -31.21875 16.28125 -32.375 C 18.164062 -33.539062 20.269531 -34.125 22.59375 -34.125 C 22.988281 -34.125 23.363281 -34.109375 23.71875 -34.078125 C 24.082031 -34.054688 24.441406 -34.046875 24.796875 -34.046875 L 24.796875 -28.015625 C 24.347656 -28.191406 23.890625 -28.289062 23.421875 -28.3125 C 22.953125 -28.34375 22.492188 -28.359375 22.046875 -28.359375 C 19.367188 -28.265625 17.359375 -27.738281 16.015625 -26.78125 C 14.679688 -25.820312 13.78125 -24.492188 13.3125 -22.796875 C 12.84375 -21.097656 12.609375 -19.0625 12.609375 -16.6875 Z M 12.609375 -16.6875"/>
      </g>
      <g transform="translate(172.008844, 63.30128)">
        <path d="M 28.625 -16.359375 L 28.625 -33.65625 L 34.984375 -33.65625 L 34.984375 0 L 28.75 0 L 28.75 -4.953125 L 28.625 -4.953125 C 27.375 -2.859375 25.726562 -1.34375 23.6875 -0.40625 C 21.65625 0.53125 19.457031 1 17.09375 1 C 14.769531 1 12.78125 0.460938 11.125 -0.609375 C 9.46875 -1.679688 8.203125 -3.144531 7.328125 -5 C 6.460938 -6.851562 6.03125 -8.894531 6.03125 -11.125 L 6.03125 -33.65625 L 12.40625 -33.65625 L 12.40625 -13.734375 C 12.40625 -11.816406 12.601562 -10.085938 13 -8.546875 C 13.40625 -7.003906 14.144531 -5.796875 15.21875 -4.921875 C 16.289062 -4.054688 17.832031 -3.625 19.84375 -3.625 C 21.132812 -3.625 22.539062 -3.988281 24.0625 -4.71875 C 25.582031 -5.457031 26.675781 -6.703125 27.34375 -8.453125 C 27.75 -9.515625 28.039062 -10.601562 28.21875 -11.71875 C 28.394531 -12.84375 28.503906 -13.828125 28.546875 -14.671875 C 28.597656 -15.523438 28.625 -16.085938 28.625 -16.359375 Z M 28.625 -16.359375"/>
      </g>
      <g transform="translate(212.961783, 63.30128)">
        <path d="M 3.546875 -24.46875 C 3.546875 -26.832031 4.226562 -28.765625 5.59375 -30.265625 C 6.957031 -31.765625 8.65625 -32.867188 10.6875 -33.578125 C 12.71875 -34.296875 14.738281 -34.65625 16.75 -34.65625 C 18.363281 -34.65625 19.960938 -34.472656 21.546875 -34.109375 C 23.140625 -33.753906 24.582031 -33.175781 25.875 -32.375 C 27.164062 -31.570312 28.179688 -30.507812 28.921875 -29.1875 C 29.660156 -27.875 29.960938 -26.253906 29.828125 -24.328125 L 23.125 -24.328125 C 23.257812 -26.472656 22.632812 -27.957031 21.25 -28.78125 C 19.863281 -29.613281 18.253906 -30.03125 16.421875 -30.03125 C 14.722656 -29.601562 13.269531 -29.601562 12.0625 -28.75 C 10.851562 -27.90625 10.25 -26.546875 10.25 -24.671875 C 10.25 -23.734375 10.550781 -22.984375 11.15625 -22.421875 C 11.757812 -21.859375 12.519531 -21.429688 13.4375 -21.140625 C 14.351562 -20.859375 15.269531 -20.625 16.1875 -20.4375 C 17.101562 -20.257812 17.851562 -20.082031 18.4375 -19.90625 C 19.863281 -19.457031 21.289062 -19.019531 22.71875 -18.59375 C 24.15625 -18.175781 25.472656 -17.640625 26.671875 -16.984375 C 27.878906 -16.335938 28.851562 -15.445312 29.59375 -14.3125 C 30.332031 -13.175781 30.703125 -11.664062 30.703125 -9.78125 C 30.703125 -7.726562 30.253906 -6.007812 29.359375 -4.625 C 28.460938 -3.238281 27.273438 -2.128906 25.796875 -1.296875 C 24.328125 -0.472656 22.71875 0.113281 20.96875 0.46875 C 19.226562 0.820312 17.488281 1 15.75 1 C 13.425781 1 11.28125 0.617188 9.3125 -0.140625 C 7.351562 -0.898438 5.789062 -2.082031 4.625 -3.6875 C 3.457031 -5.289062 2.875 -7.390625 2.875 -9.984375 L 9.578125 -9.984375 C 9.671875 -7.929688 10.351562 -6.359375 11.625 -5.265625 C 12.90625 -4.171875 14.503906 -3.625 16.421875 -3.625 C 17.671875 -3.625 18.875 -3.800781 20.03125 -4.15625 C 21.195312 -4.507812 22.148438 -5.125 22.890625 -6 C 23.628906 -6.875 24 -8.023438 24 -9.453125 C 24 -10.703125 23.503906 -11.648438 22.515625 -12.296875 C 21.535156 -12.941406 20.265625 -13.429688 18.703125 -13.765625 C 17.140625 -14.109375 15.492188 -14.46875 13.765625 -14.84375 C 12.046875 -15.226562 10.40625 -15.742188 8.84375 -16.390625 C 7.28125 -17.035156 6.003906 -17.992188 5.015625 -19.265625 C 4.035156 -20.546875 3.546875 -22.28125 3.546875 -24.46875 Z M 3.546875 -24.46875"/>
      </g>
    </g>
  </g>
</svg>
