<?xml version="1.0" standalone="no"?>

<svg xmlns="http://www.w3.org/2000/svg" width="153" height="141" viewBox="0 0 153 141" fill="none">
<path fill-rule="evenodd" clip-rule="evenodd" d="M25.7539 76.5424C10.7156 70.9597 0 56.4812 0 39.5C0 17.6848 17.6848 0 39.5 0C52.6359 0 64.2742 6.41206 71.4556 16.277C45.2626 23.9083 26.0659 47.9595 25.7539 76.5424ZM25.7539 76.5424C25.7513 76.778 25.75 77.0138 25.75 77.25C25.75 112.32 54.1799 140.75 89.25 140.75C124.32 140.75 152.75 112.32 152.75 77.25C152.75 42.1799 124.32 13.75 89.25 13.75C83.0728 13.75 77.1017 14.632 71.4556 16.277C76.2007 22.7951 79 30.8206 79 39.5C79 61.3152 61.3152 79 39.5 79C34.666 79 30.0348 78.1316 25.7539 76.5424Z" fill="black"></path>
</svg>